Coordinates
version=1
nRows=9
nColumns=63
inDegrees=yes

Units are S.I. units (second, meters, Newtons, ...)
If the header above contains a line with 'inDegrees', this indicates whether rotational values are in degrees (yes) or radians (no).

endheader
time	pelvis_tilt	pelvis_list	pelvis_rotation	pelvis_tx	pelvis_ty	pelvis_tz	hip_flexion_r	hip_adduction_r	hip_rotation_r	knee_angle_r	knee_angle_r_beta	ankle_angle_r	subtalar_angle_r	mtp_angle_r	hip_flexion_l	hip_adduction_l	hip_rotation_l	knee_angle_l	knee_angle_l_beta	ankle_angle_l	subtalar_angle_l	mtp_angle_l	L5_S1_Flex_Ext	L5_S1_Lat_Bending	L5_S1_axial_rotation	L4_L5_Flex_Ext	L4_L5_Lat_Bending	L4_L5_axial_rotation	L3_L4_Flex_Ext	L3_L4_Lat_Bending	L3_L4_axial_rotation	L2_L3_Flex_Ext	L2_L3_Lat_Bending	L2_L3_axial_rotation	L1_L2_Flex_Ext	L1_L2_Lat_Bending	L1_L2_axial_rotation	L1_T12_Flex_Ext	L1_T12_Lat_Bending	L1_T12_axial_rotation	Abs_r3	Abs_r2	Abs_r1	Abs_t1	Abs_t2	neck_flexion	neck_bending	neck_rotation	arm_flex_r	arm_add_r	arm_rot_r	elbow_flex_r	pro_sup_r	wrist_flex_r	wrist_dev_r	arm_flex_l	arm_add_l	arm_rot_l	elbow_flex_l	pro_sup_l	wrist_flex_l	wrist_dev_l
      0.00000000	      3.76071773	     -3.49801276	     98.69874872	      0.22279977	      1.01605005	      0.38015727	      0.81911422	      4.26754955	      1.60139758	      4.78674626	      0.08354448	     29.95175503	    -12.59341469	      0.00000000	      1.45412848	     -3.70138698	      1.88726873	      5.23922096	      0.09144166	     33.58145529	      3.37711557	      0.00000000	      0.47545391	      0.47720499	     -0.95524064	      0.88296546	      0.63468264	     -1.01494318	      0.78112323	      1.16027621	     -1.01494318	      0.54339627	      1.16027621	     -0.83583556	      0.44150650	      0.97311642	     -0.77613302	      0.27167436	      0.73919053	     -0.71643048	      3.39611974	      5.39823829	     -5.31276186	      0.00000000	      0.00000000	     28.18594331	      2.83551222	      5.04393021	     21.02385633	     -0.88868262	    105.25927800	     28.36582270	     79.62949738	      2.10820593	      6.38867093	     16.46849760	      4.04070257	     72.04161935	     27.86728896	     85.58516194	      3.54083149	      9.47529653
      0.01694915	      3.55127061	     -3.42525630	     98.16888372	      0.22303119	      1.01635094	      0.38103884	      1.31957244	      3.99433779	      1.47153078	      5.65551012	      0.09870727	     31.50791153	    -11.26193294	      0.00000000	      1.32762565	     -3.42857752	      0.81731801	      4.87951163	      0.08516354	     34.00869732	      4.46779744	      0.00000000	      0.45185263	      0.47752031	     -1.02879371	      0.83913552	      0.63510201	     -1.09309332	      0.74234869	      1.16104287	     -1.09309332	      0.51642237	      1.16104287	     -0.90019450	      0.41959035	      0.97375941	     -0.83589489	      0.25818859	      0.73967895	     -0.77159528	      3.22753815	      5.40180520	     -5.72184199	      0.00000000	      0.00000000	     28.14589289	      2.94503183	      6.17427865	     21.37877477	     -0.97798979	    104.28486628	     28.31359676	     76.91312692	      3.01616188	      7.59163468	     15.48701570	      3.76776549	     67.05838856	     28.71534645	     80.69433923	      3.04774069	     11.17217435
      0.03389831	      3.35032546	     -3.38760990	     98.01157984	      0.22293782	      1.01658073	      0.38260696	      1.97357096	      3.56122315	     -1.65534338	      6.80214162	      0.11871977	     33.53374387	     -6.61270822	      0.00000000	      1.80468346	     -3.45472502	     -5.50269477	      5.65837519	      0.09875728	     35.57960069	     12.42591881	      0.00000000	      0.42563056	      0.47448489	     -1.09770903	      0.79043851	      0.63106490	     -1.16631584	      0.69926844	      1.15366256	     -1.16631584	      0.48645316	      1.15366256	     -0.96049540	      0.39524053	      0.96756959	     -0.89188858	      0.24320530	      0.73497710	     -0.82328177	      3.04023650	      5.36746798	     -6.10512830	      0.00000000	      0.00000000	     28.11734997	      3.16476756	      7.51034173	     22.41280959	     -0.59744262	    108.69577616	     27.88952475	     58.36951166	      3.35723571	      9.56019333	     15.72441222	      3.58017857	     66.96339410	     28.96709927	     75.31694991	      2.08032480	     11.18379770
      0.05084746	      3.13154908	     -3.42208781	     97.53855088	      0.22302755	      1.01658365	      0.38335187	      2.47448978	      3.19838205	     -2.52305542	      7.63210439	      0.13320535	     34.49331773	     -4.86300641	      0.00000000	      1.84725218	     -3.18683515	     -6.65145163	      5.64330150	      0.09849419	     35.78379715	     13.24716407	      0.00000000	      0.41887941	      0.46345342	     -1.04290736	      0.77790096	      0.61639304	     -1.10808906	      0.68817699	      1.12684063	     -1.10808906	      0.47873728	      1.12684063	     -0.91254394	      0.38897142	      0.94507420	     -0.84736223	      0.23934770	      0.71788934	     -0.78218052	      2.99201375	      5.24267772	     -5.80033784	      0.00000000	      0.00000000	     28.09781982	      3.20460570	      8.10623184	     22.45425935	     -0.77469745	    108.75426993	     28.10827179	     49.35391234	      3.17219236	     11.48953185	     15.93688078	      3.53153152	     67.16413588	     29.11201251	     72.49868962	      1.71330533	     10.99906947
      0.06779661	      2.87302440	     -3.46112937	     96.98623065	      0.22314303	      1.01657389	      0.38373290	      2.88467975	      2.75659650	     -3.79053243	      8.36275355	      0.14595758	     35.33316323	     -2.56673845	      0.00000000	      1.66488524	     -2.78270080	     -6.03588197	      5.27424560	      0.09205295	     35.49476045	     11.72836817	      0.00000000	      0.41655398	      0.44372597	     -0.94880879	      0.77358240	      0.59015554	     -1.00810934	      0.68435654	      1.07887533	     -1.00810934	      0.47607955	      1.07887533	     -0.83020769	      0.38681203	      0.90484600	     -0.77090714	      0.23801895	      0.68733153	     -0.71160659	      2.97540345	      5.01951694	     -5.27698986	      0.00000000	      0.00000000	     28.08590144	      3.18777450	      8.28867832	     22.47722176	     -0.75537114	    109.07951034	     28.09134019	     48.42682529	      2.71838329	     11.40847567	     16.17608491	      3.50744305	     67.95961954	     29.19038509	     69.82371911	      1.31131901	     10.88369809
      0.08474576	      2.68871218	     -3.59355026	     96.86260248	      0.22305528	      1.01632771	      0.38437593	      3.29200335	      2.48311007	     -4.10087002	      8.88128294	      0.15500763	     35.58480473	     -2.24842306	      0.00000000	      1.96569295	     -2.62223608	     -7.48662016	      5.62246707	      0.09813056	     35.76970049	     13.17480254	      0.00000000	      0.42148977	      0.43157842	     -0.95751575	      0.78274865	      0.57399929	     -1.01736049	      0.69246554	      1.04933976	     -1.01736049	      0.48172066	      1.04933976	     -0.83782629	      0.39139540	      0.88007471	     -0.77798155	      0.24083926	      0.66851497	     -0.71813682	      3.01065929	      4.88210137	     -5.32541537	      0.00000000	      0.00000000	     28.08764239	      3.71879189	      9.58184084	     22.74579748	     -0.46252671	    110.86706586	     28.05474310	     46.34717995	      1.92706060	     11.20408524	     15.81010572	      3.46172647	     65.86599628	     29.47208004	     73.41688813	      1.85236178	     10.75720493
      0.10169492	      2.48682647	     -3.69183424	     96.40667308	      0.22328293	      1.01613207	      0.38476648	      3.63926804	      2.16713498	     -4.60975101	      9.36576038	      0.16346336	     35.97835482	     -1.17733252	      0.00000000	      1.97767645	     -2.33938227	     -7.34059985	      5.54832429	      0.09683653	     35.58517866	     12.25052618	      0.00000000	      0.42352333	      0.41178866	     -0.87903189	      0.78652517	      0.54767892	     -0.93397138	      0.69580648	      1.00122296	     -0.93397138	      0.48404481	      1.00122296	     -0.76915290	      0.39328376	      0.83971944	     -0.71421341	      0.24200123	      0.63786064	     -0.65927392	      3.02518479	      4.65823571	     -4.88891165	      0.00000000	      0.00000000	     28.10233591	      3.74703670	      9.50203992	     22.93450947	     -0.10284826	    112.13984875	     27.82158118	     51.82848579	      1.09102756	      9.85113360	     15.85455645	      3.43353670	     65.79778254	     29.55915511	     74.05615618	      1.88259821	     10.73139092
      0.11864407	      2.36055052	     -3.78053963	     96.14209863	      0.22341933	      1.01592182	      0.38511923	      3.86911377	      2.04156150	     -4.03494519	      9.60928358	      0.16771364	     36.02686780	     -1.74396445	      0.00000000	      2.12659483	     -2.24058573	     -8.54758423	      5.74560347	      0.10027970	     35.71175951	     13.26310413	      0.00000000	      0.42448821	      0.39788116	     -0.82777345	      0.78831705	      0.52918194	     -0.87950929	      0.69739167	      0.96740825	     -0.87950929	      0.48514757	      0.96740825	     -0.72430177	      0.39417975	      0.81135926	     -0.67256593	      0.24255256	      0.61631792	     -0.62083009	      3.03207680	      4.50091125	     -4.60382759	      0.00000000	      0.00000000	     28.12072772	      3.67397858	      9.16309859	     22.84554883	      0.10191933	    111.87446464	     27.70711028	     59.24307815	      0.15996969	      9.13971369	     15.95937672	      3.45119657	     65.89173173	     29.44301129	     76.16008119	      2.22604527	     10.33160936
      0.13559322	      2.24430119	     -3.92924641	     95.87152693	      0.22355053	      1.01562695	      0.38549993	      4.15073243	      1.85886240	     -4.21801771	      9.82496747	      0.17147803	     36.32648276	     -1.26318730	      0.00000000	      2.30069431	     -2.10924587	     -9.03809145	      5.85393851	      0.10217050	     35.67691379	     13.46150961	      0.00000000	      0.43479242	      0.38141831	     -0.78269612	      0.80745299	      0.50728636	     -0.83161463	      0.71432046	      0.92738049	     -0.83161463	      0.49692425	      0.92738049	     -0.68485911	      0.40374824	      0.77778823	     -0.63594060	      0.24844039	      0.59081697	     -0.58702209	      3.10567874	      4.31468026	     -4.35312103	      0.00000000	      0.00000000	     28.15108049	      3.33615364	      8.12270324	     22.85390049	      0.35619135	    111.76834104	     27.61416706	     68.36855006	     -0.86687923	      8.28519444	     16.03893797	      3.43515130	     65.97517551	     29.33219557	     78.54700246	      2.70203377	     10.29277472
